<?xml version="1.0" encoding="UTF-8"?>
<svg version="1.1" xmlns="http://www.w3.org/2000/svg" width="500" height="500">
<path d="M0 0 C0.82145508 -0.00298096 1.64291016 -0.00596191 2.48925781 -0.0090332 C6.14288426 -0.00726509 9.79576447 0.01921707 13.44921875 0.0546875 C12.8129285 6.73128379 11.70435414 13.16478176 10.29467773 19.71826172 C10.07608439 20.75144154 9.85749105 21.78462135 9.63227367 22.84910965 C8.90739942 26.27008566 8.1763613 29.68971362 7.4453125 33.109375 C6.92917627 35.53946015 6.41342731 37.96962757 5.89804077 40.39987183 C4.66028074 46.23134196 3.41855051 52.06195242 2.17461109 57.89210641 C1.17277527 62.58768764 0.17222954 67.28354179 -0.82730103 71.97961426 C-0.9690017 72.64536044 -1.11070237 73.31110662 -1.256697 73.99702692 C-1.54321567 75.3432257 -1.82972639 76.68942616 -2.11622918 78.03562832 C-2.83249103 81.40113064 -3.54885209 84.76661184 -4.26527405 88.13208008 C-4.4068351 88.79708574 -4.54839616 89.4620914 -4.69424695 90.14724874 C-5.55227592 94.17752693 -6.41098774 98.20765898 -7.27021497 102.23768187 C-10.53628093 117.55669266 -13.78311077 132.87949535 -16.99085426 148.2108345 C-18.07413395 153.38365615 -19.16283818 158.55533879 -20.25177288 163.72697258 C-21.06865877 167.60901969 -21.88192387 171.49174582 -22.68630981 175.37640381 C-30.7818101 214.44502508 -30.7818101 214.44502508 -38.73828125 228.9296875 C-39.11355957 229.6211084 -39.48883789 230.3125293 -39.87548828 231.02490234 C-47.6903473 244.81188492 -59.13622479 254.67715315 -74.45703125 259.27734375 C-89.31795776 263.01133917 -108.75679917 265.21376653 -122.68359375 257.296875 C-131.11405176 251.68832762 -136.53649255 244.98866749 -139.3984375 235.13671875 C-141.61061537 224.04652905 -140.96116685 212.14311369 -135.55078125 202.0546875 C-129.84351306 193.91309471 -123.19475088 188.89238123 -113.61328125 186.2421875 C-112.60265625 186.1803125 -111.59203125 186.1184375 -110.55078125 186.0546875 C-109.76316406 186.00441406 -108.97554688 185.95414063 -108.1640625 185.90234375 C-99.95084034 185.60943283 -90.68856722 186.63827962 -83.55078125 191.0546875 C-78.72538474 196.86303515 -78.94751735 203.8847477 -79.55078125 211.0546875 C-79.85422568 212.7270542 -80.17789868 214.39642109 -80.55078125 216.0546875 C-82.89974092 215.17382762 -85.16490008 214.27447199 -87.34765625 213.03125 C-92.47377307 210.14012011 -96.68474229 209.06165822 -102.55078125 210.0546875 C-107.22358392 211.45239308 -110.45519899 213.31769739 -112.98828125 217.5546875 C-115.90879701 224.09664281 -116.53701513 229.822032 -114.42578125 236.7421875 C-111.95955994 241.09917848 -109.08907442 243.78554092 -104.55078125 246.0546875 C-98.14883484 246.65548555 -91.89141179 246.8543414 -86.2265625 243.5 C-77.48011364 235.95644271 -74.9716807 220.53252576 -72.5625 209.8359375 C-72.27388596 208.57712769 -71.98527191 207.31831787 -71.68791199 206.0213623 C-66.69413871 184.14901534 -61.96743518 162.21452166 -57.18054199 140.29626465 C-55.03734067 130.48427604 -52.89115718 120.67293945 -50.74413681 110.86178589 C-50.21314512 108.43500678 -49.68233401 106.00818815 -49.1517067 103.58132935 C-46.15118564 89.85985567 -43.13199185 76.14274576 -40.07568359 62.43359375 C-39.79441337 61.17143791 -39.51314314 59.90928207 -39.22334957 58.60887909 C-37.87409244 52.55674974 -36.52199465 46.50527375 -35.16572571 40.45471191 C-34.68555052 38.30510495 -34.20541997 36.15548801 -33.7253418 34.00585938 C-33.50356703 33.02087967 -33.28179226 32.03589996 -33.05329704 31.02107239 C-32.85388575 30.12655869 -32.65447445 29.23204498 -32.44902039 28.3104248 C-32.2744868 27.53200981 -32.09995321 26.75359482 -31.92013073 25.95159149 C-31.48707376 24.04958674 -31.48707376 24.04958674 -31.55078125 22.0546875 C-44.75213089 28.05530097 -55.9734074 37.70010711 -61.55859375 51.31640625 C-66.87568805 65.99074917 -69.83204993 83.17406289 -63.55078125 98.0546875 C-72.19550279 98.55129916 -79.45180811 97.55961553 -86.92578125 92.9921875 C-93.67879336 85.43524538 -94.33373758 76.98464298 -93.9296875 67.2421875 C-92.82096594 51.86606156 -83.30324574 39.43690931 -72.55078125 29.0546875 C-56.13001521 15.00252017 -35.00473696 4.32064401 -13.55078125 1.0546875 C-12.81601562 0.92578125 -12.08125 0.796875 -11.32421875 0.6640625 C-7.56208008 0.11208849 -3.79784562 0.01375591 0 0 Z " fill="#915DFF" transform="translate(458.55078125,118.9453125)"/>
<path d="M0 0 C7.05303902 6.53792943 11.2044754 14.59246416 11.8515625 24.19921875 C11.99209506 33.89596564 11.12974533 41.520654 4.2265625 48.7421875 C-1.06878294 53.57877777 -6.29861981 53.70069336 -13.21484375 53.54296875 C-17.61442061 53.03890764 -19.84310129 51.85307511 -23.3515625 49.18359375 C-24.0115625 48.68859375 -24.6715625 48.19359375 -25.3515625 47.68359375 C-26.3515625 46.18359375 -26.3515625 46.18359375 -26.2890625 44.24609375 C-25.3515625 42.18359375 -25.3515625 42.18359375 -23.5390625 40.43359375 C-18.30996732 35.05509585 -16.63661331 28.6612136 -16.0390625 21.37109375 C-16.11029346 16.6609467 -17.70318194 13.0365603 -20.3515625 9.18359375 C-25.66480597 4.12953288 -30.1306483 3.89625478 -37.1953125 3.96484375 C-41.47069356 4.26115729 -45.63685479 4.95143755 -49.3515625 7.18359375 C-50.48752965 9.04895747 -50.48752965 9.04895747 -51.3515625 11.18359375 C-52.61733114 13.20251445 -53.92038849 15.19320475 -55.23046875 17.18359375 C-58.87681923 23.68858136 -58.3692061 32.97927191 -56.66796875 40.0078125 C-51.65438255 53.25949054 -41.27211623 63.77619072 -31.9140625 74.12109375 C-14.31901521 93.57988931 -14.31901521 93.57988931 -8.3515625 104.18359375 C-7.80757813 105.14910156 -7.26359375 106.11460937 -6.703125 107.109375 C0.78987149 121.19986353 3.34197732 137.43780519 -0.4765625 153.12109375 C-1.05035704 154.82668487 -1.67702678 156.51527639 -2.3515625 158.18359375 C-2.73054688 159.14265625 -3.10953125 160.10171875 -3.5 161.08984375 C-10.77239792 177.40019284 -24.99757095 188.87494159 -41.32470703 195.41992188 C-59.99001582 202.45257496 -82.82094919 203.18056325 -101.5078125 195.96484375 C-111.72785406 191.31937031 -121.42170805 183.54573596 -126.4765625 173.30859375 C-126.78851563 172.69242188 -127.10046875 172.07625 -127.421875 171.44140625 C-132.17701572 159.89320737 -132.41674651 144.49639339 -127.7421875 132.859375 C-121.90224879 121.62241427 -114.45021722 113.89108122 -102.3515625 109.875 C-92.17654566 107.52997659 -84.1676478 109.16370331 -75.1015625 113.87109375 C-71.63100731 116.78951516 -69.77721457 119.88986518 -68.3515625 124.18359375 C-68.3515625 125.50359375 -68.3515625 126.82359375 -68.3515625 128.18359375 C-69.10179687 128.26996094 -69.85203125 128.35632813 -70.625 128.4453125 C-78.69826635 129.55360725 -86.46008668 131.02568909 -92.234375 137.1953125 C-97.52328893 144.51547598 -99.04170912 151.86409215 -97.90625 160.75390625 C-97.17279962 163.96662553 -95.91038084 166.63699822 -94.2890625 169.4921875 C-93.3515625 171.18359375 -93.3515625 171.18359375 -92.3515625 174.18359375 C-90.70526057 175.30294448 -90.70526057 175.30294448 -88.3515625 176.18359375 C-87.2378125 176.71984375 -86.1240625 177.25609375 -84.9765625 177.80859375 C-76.87207713 180.731029 -67.98133767 180.1744229 -59.9765625 177.24609375 C-52.23298178 173.5704741 -47.32682424 167.99286706 -43.9140625 160.18359375 C-40.11468035 149.20760086 -40.9825936 138.90869697 -45.79638672 128.34716797 C-50.17983589 119.34524948 -55.88472881 111.77644872 -62.3515625 104.18359375 C-63.26063226 103.10565053 -64.16948916 102.02752776 -65.078125 100.94921875 C-66.43169249 99.34790769 -67.78716386 97.74832288 -69.14672852 96.15209961 C-100.03767102 59.85537951 -100.03767102 59.85537951 -99.23046875 35.53515625 C-97.82670383 22.42370243 -92.06884859 12.02586356 -82.3515625 3.18359375 C-60.20769643 -14.07311771 -22.9913196 -17.75907577 0 0 Z " fill="#915DFF" transform="translate(298.3515625,128.81640625)"/>
<path d="M0 0 C7.22104202 5.71895504 11.03488435 12.67472531 12.58203125 21.765625 C13.58716225 31.50499776 13.19019042 40.82371299 7.3828125 49.03125 C4.19857191 52.82068251 1.0574686 53.78237261 -3.703125 54.49609375 C-10.36953109 54.98291029 -15.51608066 53.26236851 -21.015625 49.55859375 C-21.655 48.91921875 -22.294375 48.27984375 -22.953125 47.62109375 C-22.953125 46.96109375 -22.953125 46.30109375 -22.953125 45.62109375 C-22.045625 44.91984375 -21.138125 44.21859375 -20.203125 43.49609375 C-13.8925469 38.36130733 -12.25120975 31.33864348 -11.13671875 23.52734375 C-10.81907547 18.49911826 -11.84228845 14.7316832 -14.203125 10.24609375 C-18.15800696 6.57370336 -23.33196197 6.09688077 -28.53125 6.25390625 C-37.57490564 7.62504114 -44.35232348 13.77228755 -49.953125 20.62109375 C-71.1912628 50.85374141 -80.49067214 89.10547393 -81.953125 125.62109375 C-81.994375 126.62011719 -82.035625 127.61914062 -82.078125 128.6484375 C-82.36138027 142.12076647 -80.8952132 156.8905879 -71.953125 167.62109375 C-63.28903423 173.85923911 -52.79062932 174.60446516 -42.4765625 173.12109375 C-25.29859033 170.04235332 -11.56922101 162.85226194 0.046875 149.62109375 C0.376875 148.96109375 0.706875 148.30109375 1.046875 147.62109375 C3.356875 147.95109375 5.666875 148.28109375 8.046875 148.62109375 C9.25051435 151.4849253 9.07349454 152.55240417 7.9296875 155.50390625 C3.74502187 163.22228952 -0.773278 169.35216787 -6.953125 175.62109375 C-7.76330078 176.53955078 -7.76330078 176.53955078 -8.58984375 177.4765625 C-21.80177253 192.01966798 -43.68451413 200.58305411 -62.953125 201.62109375 C-79.5364489 202.39017544 -98.01689551 200.66340248 -111.0625 189.4296875 C-124.57646647 176.50207081 -128.59945296 158.7519833 -129.15625 140.5546875 C-129.44498895 120.21524942 -127.08647915 100.30730195 -121.953125 80.62109375 C-121.77023926 79.91436523 -121.58735352 79.20763672 -121.39892578 78.47949219 C-113.50251937 48.56700691 -98.09790037 17.26972297 -70.8046875 0.7109375 C-49.88546356 -10.56246579 -20.63469063 -13.88340762 0 0 Z " fill="#915DFF" transform="translate(156.953125,127.37890625)"/>
</svg>
